<?xml version="1.0" standalone="no"?>
<!DOCTYPE svg PUBLIC "-//W3C//DTD SVG 1.1//EN" "http://www.w3.org/Graphics/SVG/1.1/DTD/svg11.dtd" >
<!--
2013-9-30: Created.
-->
<svg>
<metadata>
Created by iconfont
</metadata>
<defs>

<font id="iconfont" horiz-adv-x="1024" >
  <font-face
    font-family="iconfont"
    font-weight="500"
    font-stretch="normal"
    units-per-em="1024"
    ascent="896"
    descent="-128"
  />
    <missing-glyph />
    
    <glyph glyph-name="x" unicode="x" horiz-adv-x="1001"
d="M281 543q-27 -1 -53 -1h-83q-18 0 -36.5 -6t-32.5 -18.5t-23 -32t-9 -45.5v-76h912v41q0 16 -0.5 30t-0.5 18q0 13 -5 29t-17 29.5t-31.5 22.5t-49.5 9h-133v-97h-438v97zM955 310v-52q0 -23 0.5 -52t0.5 -58t-10.5 -47.5t-26 -30t-33 -16t-31.5 -4.5q-14 -1 -29.5 -0.5
t-29.5 0.5h-32l-45 128h-439l-44 -128h-29h-34q-20 0 -45 1q-25 0 -41 9.5t-25.5 23t-13.5 29.5t-4 30v167h911zM163 247q-12 0 -21 -8.5t-9 -21.5t9 -21.5t21 -8.5q13 0 22 8.5t9 21.5t-9 21.5t-22 8.5zM316 123q-8 -26 -14 -48q-5 -19 -10.5 -37t-7.5 -25t-3 -15t1 -14.5
t9.5 -10.5t21.5 -4h37h67h81h80h64h36q23 0 34 12t2 38q-5 13 -9.5 30.5t-9.5 34.5q-5 19 -11 39h-368zM336 498v228q0 11 2.5 23t10 21.5t20.5 15.5t34 6h188q31 0 51.5 -14.5t20.5 -52.5v-227h-327z" />
    

    
    <glyph glyph-name="cuo" unicode="&#58941;" d="M512.781806 687.114688c-212.103746 0-384.04784-171.944094-384.04784-384.04784S300.67806-80.980991 512.781806-80.980991 896.829646 90.963103 896.829646 303.066849 724.885552 687.114688 512.781806 687.114688zM512.781806-39.539136c-189.216479 0-342.605985 153.389506-342.605985 342.605985s153.389506 342.605985 342.605985 342.605985 342.605985-153.389506 342.605985-342.605985S701.998285-39.539136 512.781806-39.539136zM551.411615 303.066849l96.573499 96.574522c10.667967 10.665921 10.667967 27.960819 0 38.628786-10.666944 10.665921-27.961842 10.665921-38.628786 0l-96.573499-96.573499-96.573499 96.573499c-10.667967 10.665921-27.962865 10.665921-38.629809 0-10.666944-10.667967-10.666944-27.962865 0-38.628786l96.573499-96.574522-96.573499-96.574522c-10.666944-10.665921-10.666944-27.960819 0-38.628786 10.666944-10.665921 27.961842-10.665921 38.629809 0l96.573499 96.573499 96.573499-96.573499c10.666944-10.665921 27.961842-10.665921 38.628786 0 10.667967 10.667967 10.667967 27.962865 0 38.628786L551.411615 303.066849z"  horiz-adv-x="1024" />

    
    <glyph glyph-name="fanhui1" unicode="&#58958;" d="M480 748C214.912 748 0 533.088 0 268 0 2.912 214.912-212 480-212c265.088 0 480 214.912 480 480C960 533.088 745.088 748 480 748zM565.12 98.976c12.48-12.48 12.48-32.768 0-45.248-6.272-6.272-14.464-9.344-22.656-9.344s-16.384 3.136-22.656 9.344L328.32 245.344c-12.48 12.48-12.48 32.768 0 45.248l192.768 192.832c12.48 12.48 32.768 12.48 45.248 0s12.48-32.768 0-45.248L396.224 267.936 565.12 98.976z"  horiz-adv-x="1024" />

    
    <glyph glyph-name="shaixuan" unicode="&#58888;" d="M918.947787 687.731827c6.592716-15.913957 3.877736-29.492242-8.141552-40.737112L624.389996 360.163045l0-431.717883c0-16.28762-7.550014-27.731174-22.647784-34.33405-5.028075-1.933788-9.874398-2.903504-14.535583-2.903504-10.460292 0-19.171933 3.682438-26.142827 11.055216L412.338235 51.214169c-7.362618 7.371649-11.040541 16.097966-11.040541 26.175564L401.297694 360.163045 114.881456 646.994715c-11.998968 11.24487-14.713948 24.823155-8.146068 40.737112 6.593844 15.119219 18.020466 22.674878 34.284379 22.674878l743.64477 0C900.927321 710.407833 912.355071 702.851046 918.947787 687.731827L918.947787 687.731827zM918.947787 687.731827"  horiz-adv-x="1024" />

    
    <glyph glyph-name="dengji" unicode="&#58917;" d="M1003.401093 354.951387c-71.733271-87.90546-198.609773-233.017993-198.609773-233.017993s20.712643-159.34898 32.328111-268.198884c5.11284-55.458398-34.637988-79.463023-79.63179-57.861809-85.658617 43.297994-216.044667 110.348477-245.304465 125.408428-29.8088-14.884067-161.455523-80.799945-247.990511-123.999322-45.597704-21.523946-85.841618 2.403411-80.661678 57.792675 11.795419 108.675037 32.754097 267.844066 32.754097 267.844066S87.935427 267.791146 15.292235 355.521739c-25.689248 31.870609-9.096157 77.232446 41.425286 85.59965 103.158579 19.625821 263.076895 50.832544 263.076895 50.832544s87.475408 162.166176 142.839256 261.484788c30.43812 60.442121 51.476097 53.413873 55.077147 51.663165 9.409292-3.234031 24.211008-15.058934 43.599945-51.732298 54.726395-99.507712 141.157682-261.826389 141.157682-261.826389s158.030358-31.300257 259.995364-50.911845C1012.464717 432.266183 1028.810757 386.829113 1003.401093 354.951387L1003.401093 354.951387 1003.401093 354.951387z"  horiz-adv-x="1024" />

    
    <glyph glyph-name="pinglun" unicode="&#58940;" d="M1019.680768 334.308096c0 227.627008-227.328 412.839936-506.76736 412.839936-279.437312 0-506.765312-185.212928-506.765312-412.839936 0-227.612672 227.325952-412.817408 506.765312-412.817408 68.716544 0 135.749632 11.278336 199.417856 33.583104l269.811712-102.219776-49.19296 250.966016C989.73696 172.270336 1019.680768 251.714304 1019.680768 334.308096zM733.452288 10.824448c-6.801408 2.578432-13.959168 3.868672-21.121024 3.868672-6.662144 0-13.328384-1.118208-19.712-3.352576-57.26208-20.06016-117.725184-30.230528-179.705856-30.230528-246.556672 0-447.143936 158.44352-447.143936 353.19808 0 194.766848 200.589312 353.220608 447.143936 353.220608 246.55872 0 447.148032-158.45376 447.148032-353.220608 0-68.319232-25.2416-134.858752-72.996864-192.421888-11.431936-13.778944-16.064512-31.965184-12.621824-49.534976l28.571648-145.764352L733.452288 10.824448zM763.123712 282.383104c-15.02208 6.56384-32.575488-0.27648-39.213056-15.29856-1.65888-3.710976-41.658368-90.957824-154.318848-101.496832-153.765888-14.395392-217.372672 23.826432-219.236352 24.977408-13.623296 9.039872-31.905792 5.429248-41.105408-8.062976-9.285632-13.60896-5.763072-32.1536 7.831552-41.41056 6.637568-4.511744 60.57984-38.426624 184.971264-38.426624 22.095872 0 46.432256 1.077248 73.068544 3.565568 148.815872 13.914112 201.304064 132.10624 203.487232 137.127936C785.074176 258.4256 778.145792 275.819264 763.123712 282.383104zM602.165248 385.762048l89.42592 0c16.463872 0 29.810688 13.344768 29.810688 29.810688 0 16.46592-13.346816 29.810688-29.810688 29.810688l-89.42592 0c-16.463872 0-29.810688-13.344768-29.810688-29.810688C572.352512 399.106816 585.701376 385.762048 602.165248 385.762048zM363.685888 355.953408c16.463872 0 29.810688 13.346816 29.810688 29.810688l0 89.427968c0 16.461824-13.344768 29.810688-29.810688 29.810688-16.463872 0-29.810688-13.346816-29.810688-29.810688l0-89.427968C333.8752 369.300224 347.219968 355.953408 363.685888 355.953408z"  horiz-adv-x="1024" />

    
    <glyph glyph-name="iconfontqianjin" unicode="&#58906;" d="M798.784 416.64l-512.384 466.88c-16.832 16.64-44.032 16.64-60.928 0-16.768-16.64-16.768-43.968 0-60.608l481.536-438.72-481.536-439.104c-16.768-16.64-16.768-43.52 0-60.608 16.832-16.64 44.096-16.64 60.928 0l512.384 466.88c8.96 8.96 12.8 20.928 12.224 32.832C811.584 395.712 807.744 407.68 798.784 416.64"  horiz-adv-x="1024" />

    
    <glyph glyph-name="yongcan" unicode="&#58892;" d="M931.617485 399.499378C988.758384 443.362015 1118.434773 579.28499 1151.101344 619.358715 1178.374688 655.780064 1152.705659 736.405395 1077.268749 731.626586 1090.034995 767.808995 1056.037184 822.526356 994.868432 816.245635 995.551119 867.07168 937.966474 924.076042 871.848241 880.520613 830.238471 843.894458 683.187698 699.745105 655.470607 659.227633 591.571107 593.211804 606.624355 536.105039 612.051716 506.20335 490.294496 622.942821 356.999866 790.883815 260.194855 861.0299 223.671102 881.920122 163.048499 874.376431 122.326222 807.780317 113.144082 786.207409 68.22328 703.39748 152.466851 570.614865 242.035381 454.592216 274.360609 375.161587 348.500413 310.852475 287.229258 251.356306 62.659381 96.591171 12.311217 29.892655-37.934543-73.807495 77.507823-160.030859 144.718354-116.407162 242.240187-41.413999 492.137751 131.817819 539.584495 180.356862 553.067563 172.915574 562.727583 168.239168 568.223213 166.532451 589.045166 159.910387 625.50065 143.935512 660.112879 158.852222 736.812759 96.045022 923.698316-61.826339 983.365157-92.888596 1004.187109-108.863471 1043.714685-125.316227 1088.567218-97.121255 1143.864862-61.041249 1153.320077 12.723077 1129.152958 41.63487 1111.915112 66.416407 847.237376 275.386887 770.81057 351.301678 835.768235 344.679614 904.719618 375.537065 931.617485 399.499378L931.617485 399.499378ZM121.063251-71.383957C84.027483-88.792474 37.024486-50.630273 55.66184 3.506803 60.235842 18.457648 349.046563 257.739429 377.548744 281.599339 395.708217 263.405731 456.945238 214.286404 478.893624 191.484659 415.574408 120.860693 153.627419-49.811049 121.063251-71.383957L121.063251-71.383957ZM1082.252364 11.835584C1096.145043-3.695544 1078.190376-37.147205 1066.004414-48.138466 1048.425225-66.502745 1029.241721-67.526775 1006.610648-50.971616 956.22835-17.758896 883.044307 43.170916 659.737401 224.560843 635.570282 192.269749 623.042977 202.646591 599.387873 207.4254 565.116988 218.382526 431.515148 287.129103 222.271594 558.599575 150.794268 643.355162 171.37728 695.751386 174.244566 720.464654 186.362259 783.032915 233.672466 804.571688 261.355422 778.970927 358.058031 708.858976 636.764985 402.025319 724.012379 323.44805 800.439184 247.499125 1065.082787 36.514718 1082.252364 11.835584L1082.252364 11.835584ZM725.821499 416.737223C669.158481 452.168677 659.498461 508.353814 655.948488 530.507006 650.555261 560.408695 659.054714 592.87046 688.273716 623.01109 734.69643 682.951006 859.286801 803.547658 900.930706 840.242082 911.478219 846.625205 939.912131 844.133398 939.19531 814.641321 785.966221 657.281976 748.145363 634.00235 716.775897 585.907053 697.114512 545.457851 736.983431 526.171944 766.782717 548.325136 864.475222 623.932717 923.834853 696.229267 996.029 764.634501 1007.054395 765.317188 1029.241721 759.923961 1023.370613 742.720249 987.973294 698.857612 859.116129 588.535398 822.660645 534.398322 778.627336 467.221925 846.110942 449.881676 879.665007 487.224653 944.042388 537.572816 1024.974927 634.889843 1075.835106 679.401033 1093.072952 685.34041 1112.256456 666.054503 1105.019974 646.632059 1065.799608 605.875647 953.600005 481.490082 896.49324 437.661579 825.971677 387.074475 762.993804 396.529689 725.821499 416.737223L725.821499 416.737223Z"  horiz-adv-x="1162" />

    
    <glyph glyph-name="faxian" unicode="&#58881;" d="M512 896C230.4 896 0 665.6 0 384c0-281.6 230.4-512 512-512 281.6 0 512 230.4 512 512C1024 665.6 793.6 896 512 896zM512-89.6C250.88-89.6 38.4 122.88 38.4 384 38.4 645.12 250.88 857.6 512 857.6c261.12 0 473.6-212.48 473.6-473.6C985.6 122.88 773.12-89.6 512-89.6zM752.64 650.24l-348.16-145.92c-5.12-2.56-7.68-5.12-10.24-10.24L245.76 143.36c-2.56-7.68-2.56-15.36 5.12-20.48 2.56-2.56 7.68-5.12 12.8-5.12 2.56 0 5.12 0 7.68 2.56l348.16 145.92c5.12 2.56 7.68 5.12 10.24 10.24l145.92 348.16c2.56 7.68 2.56 15.36-5.12 20.48C768 650.24 757.76 652.8 752.64 650.24zM596.48 299.52l-296.96-125.44 125.44 296.96 296.96 125.44L596.48 299.52zM509.44 327.68c33.28 0 58.88 28.16 58.88 58.88 0 33.28-28.16 58.88-58.88 58.88s-58.88-28.16-58.88-58.88C450.56 353.28 476.16 327.68 509.44 327.68zM509.44 407.04c12.8 0 20.48-10.24 20.48-20.48 0-12.8-10.24-20.48-20.48-20.48-12.8 0-20.48 10.24-20.48 20.48C488.96 399.36 499.2 407.04 509.44 407.04z"  horiz-adv-x="1024" />

    
    <glyph glyph-name="dui" unicode="&#59155;" d="M735.97634 581.19684 411.375796 256.59508 288.023624 379.971578c-13.08264 13.08264-34.342539 13.08264-47.426395 0-13.08264-13.08264-13.08264-34.342539 0-47.426395L387.638272 185.504139c6.565646-6.589973 15.151585-9.859416 23.737524-9.859416 8.585939 0 17.171878 3.269444 23.737524 9.810764l348.290632 348.243196c13.083857 13.08264 13.083857 34.366865 0 47.450722C770.320095 594.232045 749.060196 594.279481 735.97634 581.19684zM511.999982 886.414254c-277.847985 0-503.099037-225.251052-503.099037-503.099037S234.151997-119.785036 511.999982-119.785036s503.099037 225.251052 503.099037 503.099037S789.847967 886.414254 511.999982 886.414254zM511.999982-52.733464c-240.811317 0-436.024355 195.237364-436.024355 436.047465 0 240.835644 195.213037 436.024355 436.024355 436.024355s436.000029-195.188711 436.000029-436.024355C948.001227 142.502683 752.811299-52.733464 511.999982-52.733464z"  horiz-adv-x="1024" />

    
    <glyph glyph-name="paixu" unicode="&#58893;" d="M300.096 849.696C298.144 852.128 295.072 853.568 291.904 853.568c-3.2 0-6.24-1.44-8.224-3.872L88.576 605.44C85.76 601.888 85.728 596.96 88.544 593.344 91.328 589.792 96.256 588.48 100.608 590.112l147.296 55.392 0-731.072 88.032 0L335.936 647.072l144.864-54.496-4.16 0 6.496-2.464c4.32-1.632 9.248-0.288 12.064 3.264 1.408 1.792 2.08 3.904 2.08 6.016 0 2.112-0.704 4.288-2.144 6.08L300.096 849.696zM935.456 174.624c-2.816 3.552-7.744 4.896-12.064 3.264l-6.496-2.464 4.16 0-144.864-54.496L776.192 853.568l-88.032 0 0-731.072-147.296 55.392c-4.32 1.632-9.28 0.288-12.064-3.264-2.816-3.584-2.784-8.512 0.064-12.096l195.072-244.256c1.952-2.432 4.992-3.904 8.224-3.904 3.2 0 6.24 1.44 8.192 3.904l195.072 244.256c1.44 1.792 2.144 3.936 2.144 6.08C937.568 170.72 936.864 172.832 935.456 174.624z"  horiz-adv-x="1024" />

    
    <glyph glyph-name="up" unicode="&#58903;" d="M845.923 204.013l-334.034 338.493-334.032-338.493-2.665 2.689c-2.856-1.737-5.997-2.963-9.566-2.963-10.636 0-19.227 8.709-19.227 19.488 0 3.63 1.214 6.805 2.903 9.686l-2.665 2.701 353.020 357.709 2.665-2.689c2.856 1.737 5.997 2.963 9.566 2.963 3.546 0 6.711-1.226 9.566-2.939l2.641 2.689 353.021-357.732-2.641-2.701c1.689-2.88 2.903-6.056 2.903-9.686 0-10.778-8.614-19.488-19.251-19.488-3.568 0-6.71 1.226-9.541 2.939l-2.664-2.666zM845.923 204.013z"  horiz-adv-x="1024" />

    
    <glyph glyph-name="fangdajing" unicode="&#58891;" d="M947.509543-2.852403 726.787249 217.869891c55.154992 64.569202 88.411712 148.273808 88.411712 239.653043 0 203.735785-165.77196 369.507745-369.507745 369.507745s-369.507745-165.77196-369.507745-369.507745 165.77196-369.610073 369.507745-369.610073c91.379235 0 175.083841 33.359049 239.653043 88.411712l220.722294-220.722294c5.730389-5.730389 13.20036-8.595583 20.772659-8.595583 7.469971 0 15.04227 2.865194 20.772659 8.595583C958.970321-32.834616 958.970321-14.313181 947.509543-2.852403zM134.817628 457.522934c0 171.40002 139.473569 310.873588 310.873588 310.873588S756.564805 628.922954 756.564805 457.522934c0-171.40002-139.473569-310.873588-310.873588-310.873588S134.817628 286.122914 134.817628 457.522934z"  horiz-adv-x="1024" />

    
    <glyph glyph-name="picture" unicode="&#58904;" d="M1037.654 893.654h-983.041c-30.163 0-54.613-24.455-54.613-54.621v-873.788c0-30.15 24.45-54.578 54.613-54.578h983.041c30.163 0 54.613 24.427 54.613 54.578v873.787c0 30.168-24.45 54.623-54.613 54.623v0zM928.422 74.487h-764.578v273.037l163.834 163.849 273.071-273.066 163.834 163.86 163.838-163.86v-163.821zM819.196 511.372c-60.325 0-109.22 48.893-109.22 109.216 0 60.344 48.895 109.221 109.22 109.221 60.325 0 109.226-48.877 109.226-109.221 0-60.323-48.9-109.216-109.226-109.216v0z"  horiz-adv-x="1093" />

    
    <glyph glyph-name="dingdan" unicode="&#58884;" d="M818.24768-101.0176 241.59232-101.0176c-63.5904 0-115.33312 51.73248-115.33312 115.32288L126.2592 756.44416c0 63.5904 51.74272 115.33312 115.33312 115.33312l447.51872 0 244.46976-233.84064 0-623.63136C933.5808-49.28512 881.83808-101.0176 818.24768-101.0176zM241.59232 825.64096c-38.15936 0-69.20192-31.04256-69.20192-69.20192l0-742.13888c0-38.15424 31.04256-69.20192 69.20192-69.20192l576.65536 0c38.15936 0 69.20704 31.04256 69.20704 69.20192L887.45472 618.20416l-216.85248 207.44192L241.59232 825.64096 241.59232 825.64096zM346.8544 662.69696l366.13632 0c12.8512 0 23.22944-10.38336 23.22944-23.20384 0-12.82048-10.37824-23.22944-23.22944-23.22944L346.8544 616.26368c-12.84608 0-23.22944 10.40896-23.22944 23.22944C323.62496 652.3136 334.0032 662.69696 346.8544 662.69696zM346.8544 483.09248l366.13632 0c12.8512 0 23.22944-10.37824 23.22944-23.20384s-10.37824-23.22432-23.22944-23.22432L346.8544 436.66432c-12.84608 0-23.22944 10.39872-23.22944 23.22432S334.0032 483.09248 346.8544 483.09248zM346.8544 303.50848l366.13632 0c12.8512 0 23.22944-10.38336 23.22944-23.20384s-10.37824-23.22944-23.22944-23.22944L346.8544 257.0752c-12.84608 0-23.22944 10.40896-23.22944 23.22944S334.0032 303.50848 346.8544 303.50848zM346.8544 123.89888l366.13632 0c12.8512 0 23.22944-10.37824 23.22944-23.20896 0-12.81536-10.37824-23.22944-23.22944-23.22944L346.8544 77.46048c-12.84608 0-23.22944 10.41408-23.22944 23.22944C323.62496 113.52064 334.0032 123.89888 346.8544 123.89888z"  horiz-adv-x="1024" />

    
    <glyph glyph-name="luotuo" unicode="&#58899;" d="M833.021 46.112c-5.058 0-11.774 0.739-14.983 4.239-1.352 1.475-1.974 3.289-1.805 5.249-0.381-0.084-0.759-0.105-1.121-0.105-2.333 0-4.392 1.477-6.355 4.155-2.091 10.228 5.457 13.538 12.765 16.721 7.815 3.437 16.682 7.296 21.519 18.030 15.742 34.834 14.885 134.359 2.238 147.895-19.745 21.193-26.776 77.596-34.917 142.918l-2.069 16.49c-57.446-32.512-116.606-49.678-171.338-49.678-36.489 0-62.631 7.518-77.213 13.221l28.728-140.167c-2.619-7.326-1.384-51.807-0.476-84.268l0.509-18.534c0.274-10.584 1.752-17.733 2.828-22.942 1.637-7.907 2.673-12.903-4.476-17.185 0.696-3.69 3.516-6.495 6.050-8.983 2.787-2.762 5.416-5.355 4.802-8.919-0.506-2.951-3.062-5.314-8.552-7.886-5.436-2.574-8.318-2.951-13.113-3.565l-2.988-0.399c-4.497-0.654-8.995-0.969-13.188-0.969-6.249 0-21.093 0.736-23.986 7.483-0.348 0.782-0.676 2.047-0.328 3.565-2.259 0.928-4.56 2.55-4.56 5.419 0.011 7.59 18.265 11.703 20.345 12.146 19.162 16.363 1.531 123.257-4.466 138.3l-1.131 2.859c-36.679 92.366-71.331 151.183-97.632 165.776 0.274-0.253-0.465-0.307-1.235-0.307-12.503 0-35.35 15.593-46.289 31.366-1.414-0.043-2.828-0.064-4.245-0.064-54.099 0-108.337 29.974-148.818 82.245-13.346 17.239-21.833 39.029-29.319 58.251-8.383 21.527-15.627 40.116-25.837 40.694-11.391 0.644-20.207 5.946-28.728 11.070-8.827 5.314-17.156 10.333-28.106 10.333-2.883 0-5.89-0.358-8.942-1.066l-2.42-0.294c-1.605 0-3.007 0.378-4.245 0.728-1.15 0.315-2.249 0.611-3.473 0.611-1.109 0-2.259-0.244-3.549-0.728-5.036-1.941-9.153-2.922-12.225-2.922-6.208 0-7.127 3.902-7.252 5.104-0.19 1.675 0.4 3.468 1.498 5.048-2.197 1.202-3.285 3.005-3.802 4.293-3.083 7.6 3.369 21.084 11.541 29.466 0.645 13.97 12.394 18.513 18.784 20.981 9.797 3.902 18.211 5.503 27.282 5.503 5.648 0 10.896-0.601 15.837-1.159 4.171-0.486 8.12-0.939 11.889-0.939 2.988 0 5.575 0.296 7.897 0.918 12.935 3.405 19.154 5.968 19.271 6.020 4.634 1.939 9.449 2.922 14.306 2.922 3.821 0 7.644-0.613 11.391-1.825 3.928 6.473 8.721 9.995 13.968 10.237 0.021 0 0.033 0 0.033 0 2.914 0 5.047-1.097 6.578-3.174 3.717-5.018 2.934-14.453 1.003-21.687 5.955-6.462 11.351-14.581 16.038-24.185 15.994-32.757 67.097-104.554 114.768-104.543 10.834 0 20.979 3.795 30.164 11.271 56.329 57.458 92.544 80.991 124.798 80.991 9.049 0 18.096-1.729 28.476-5.441 19.133 3.332 36.163 25.124 51.187 44.364 7.318 9.362 14.222 18.209 20.767 23.731 12.935 10.87 30.24 17.1 47.48 17.1 17.898 0 45.305-6.653 74.246-38.334 22.638-24.774 33.375-47.969 41.99-66.608 9.713-21.002 17.389-37.587 37.334-47.276l6.292-3.003c24.886-11.852 58.977-28.065 76.558-61.191l1.055-2.783c10.929-20.802 13.147-46.167 6.463-76.236l-1.995-7.464c0.074-21.16-1.311-38.818-4.022-51.766-0.709-13.305-2.061-24.131-4.066-32.662l-0.94-5.081c-0.886-28.149 4.392-50.966 4.445-51.186l-5.544-1.708c-0.074 0.212-0.96 2.488-2.154 6.441 0.886-20.104 4.15-34.337 4.192-34.539l-5.533-1.708c-0.274 0.695-6.599 17.155-8.889 40.917-2.714 11.566-4.212 23.395-4.487 35.013-4.361-22.224-6.325-45.693-1.109-65.884 5.596-7.369 2.692-16.373-2.113-31.28-5.426-16.816-13.62-42.223-16.503-85.819-1.52-22.835-1.624-37.723-1.7-47.484-0.095-14.614-0.136-19.569-6.102-21.193 1.457-3.984 0.601-7.294-0.579-9.593-5.468-10.585-25.749-15.351-38.398-15.351z"  horiz-adv-x="1024" />

    
    <glyph glyph-name="didiantubiao" unicode="&#58885;" d="M512.000512 784.568095c-169.610956 0-307.101353-135.715985-307.101353-303.127855 0-167.415964 307.101353-498.009358 307.101353-498.009358s307.099307 330.593394 307.099307 498.009358C819.099818 648.85211 681.609421 784.568095 512.000512 784.568095L512.000512 784.568095zM512.000512 330.59058c-81.118506 0-146.878209 65.759703-146.878209 146.877185 0 81.118506 65.759703 146.878209 146.878209 146.878209 81.117482 0 146.876162-65.759703 146.876162-146.878209C658.876674 396.349259 593.116971 330.59058 512.000512 330.59058L512.000512 330.59058zM512.000512 330.59058"  horiz-adv-x="1024" />

    
    <glyph glyph-name="161019kefuicon" unicode="&#58953;" d="M208.147259 217.575676c21.043222 9.149227 30.649911 33.85214 21.500684 54.895363-21.043222 48.490904-32.022295 100.641498-32.022295 154.621938 1.372384 213.634453 179.324851 386.554845 397.991379 385.182461 218.666528-1.372384 394.789149-175.66516 393.874226-389.757074-1.372384-213.634453-179.324851-386.554845-397.991379-385.182461-22.873068 0-42.086445-18.298454-42.086445-41.628983 0-22.873068 18.298454-42.086445 41.628983-42.086445 191.218846-0.914923 357.277318 107.96088 435.045748 267.157431 80.513198 5.032075 144.557788 69.991587 145.015249 150.504786 0.457461 67.704281-44.373751 124.88695-106.588496 145.015249-43.001367 215.464298-236.050059 378.32054-467.982966 379.692924C363.684119 897.363249 168.348121 735.42193 123.974369 519.042709c-70.449049-13.723841-123.514566-74.566201-123.972027-147.760018-0.457461-83.715428 68.161742-151.87717 153.707015-152.334631 5.489536 0 10.979073 0 16.011147 0.914923C181.157039 213.001063 195.338341 211.628679 208.147259 217.575676M330.746902 310.897793c10.521611-18.298454 31.107372-43.001367 63.129667-67.246819 52.608056-39.799138 118.939952-64.04459 198.995689-64.502051 80.513198-0.457461 146.845095 22.873068 199.910612 62.214744 32.479756 24.245452 53.065517 48.490904 64.04459 66.789358 11.893995 19.670838 5.489536 45.288674-14.181302 57.182669-19.670838 11.893995-45.288674 5.489536-57.182669-14.181302-5.489536-9.149227-19.670838-25.617836-42.086445-42.543906-38.884215-28.820065-87.83258-46.203597-149.589863-45.746135-61.757283 0.457461-110.705648 18.298454-149.132402 47.11852-22.415606 16.92607-36.139447 33.85214-41.628983 43.001367-11.436534 20.1283-37.05437 26.532759-57.182669 15.096225C325.714827 356.186467 318.852907 330.568631 330.746902 310.897793M540.721664-127.807647l83.715428-0.457461c57.640131-0.457461 104.75865 46.203597 105.216112 103.843728 0.457461 57.640131-46.203597 104.75865-103.843728 105.216112l-83.715428 0.457461c-57.640131 0.457461-104.75865-46.203597-105.216112-103.843728C436.420475-80.689127 483.081533-127.350185 540.721664-127.807647"  horiz-adv-x="1172" />

    
    <glyph glyph-name="shuaxin1" unicode="&#58996;" d="M956.900748 462.668486 883.024396 461.744175C880.456867 663.688849 712.985543 825.340442 508.918379 822.772914 304.816981 820.205385 141.487936 654.411513 144.055465 452.466839 146.588759 250.522166 314.094318 88.836339 518.161481 91.403867L519.085792 18.280656C274.212042 15.199622 73.225912 209.202074 70.179112 451.576763 67.098078 693.917218 263.120319 892.883558 507.994069 895.964592 752.833585 899.011393 953.853948 705.043174 956.900748 462.668486L956.900748 462.668486 956.900748 462.668486ZM956.900748 462.668486C957.174618 442.470595 940.810903 425.867244 920.40761 425.593374 900.038551 425.353738 883.264032 441.546285 883.024396 461.744175 882.750526 481.907832 899.114241 498.511183 919.4833 498.750819 939.886593 499.024689 956.661112 482.866376 956.900748 462.668486L956.900748 462.668486 956.900748 462.668486ZM740.304046 57.615192 520.934412-128 516.312861 237.684523 740.304046 57.615192 740.304046 57.615192Z"  horiz-adv-x="1028" />

    
    <glyph glyph-name="tubiaozhizuomoban" unicode="&#58890;" d="M794.4 202.3h-91.5c0 25.3 20.5 45.8 45.8 45.8 5.5 0 10.9-0.9 15.7-3 17.5-6.1 30-22.9 30-42.8zM361 202.3h-96c0 25.4 19.7 46 44.3 47.9 1.2 0.2 2.6 0.2 3.8 0.2 26.6 0.1 47.9-21.5 47.9-48.1zM383 624h70v-246.1h-70zM606.1 192.3h-57.7c-5.5 0-10 4.5-10 10v165.7h-85.5c-5.5 0-10 4.5-10 10v341.8c0 5.5 4.5 10 10 10h153.2c5.5 0 10-4.5 10-10v-393c0-5.5-4.5-10-10-10s-10 4.5-10 10v383h-133.2v-321.8h85.5c5.5 0 10-4.5 10-10v-165.7h37.7v73.8c0 5.5 4.5 10 10 10s10-4.5 10-10v-83.8c0-5.5-4.5-10-10-10zM673.7 192.3h-64.3c-5.5 0-10 4.5-10 10s4.5 10 10 10h55c4.9 34.1 34.3 60.4 69.7 60.4 3.7 0 7.3-0.3 10.7-0.8v294.4h-135.4c-5.5 0-10 4.5-10 10s4.5 10 10 10h145.4c5.5 0 10-4.5 10-10v-317.4c0-3.4-1.7-6.5-4.5-8.3-2.8-1.9-6.4-2.2-9.4-0.8-4.7 2-10.5 3.1-16.8 3.1-27.8 0-50.4-22.6-50.4-50.4 0-5.7-4.5-10.2-10-10.2zM452.9 367.9h-104.6c-5.5 0-10 4.5-10 10v276.1c0 5.5 4.5 10 10 10h104.6c5.5 0 10-4.5 10-10v-276c0-5.6-4.5-10.1-10-10.1zM358.3 387.9h84.6v256.1h-84.6v-256.1zM548.4 192.3h-126.4c-5.5 0-10 4.5-10 10 0 11.4-9.3 20.6-20.6 20.6-2.1 0-3.3-0.2-4.3-0.6-0.4-0.2-0.9-0.4-1.3-0.5-8.6-2.5-14.7-10.5-14.7-19.5 0-5.5-4.5-10-10-10s-10 4.5-10 10c0 28.1-22.7 51-50.7 51-0.8 0-2.3 0-2.9-0.1-2.9-0.6-6 0.2-8.3 2.1s-3.7 4.7-3.7 7.7v115c0 5.5 4.5 10 10 10h252.9c5.5 0 10-4.5 10-10v-175.7c0-5.5-4.4-10-10-10zM430.8 212.3h107.7v155.7h-232.9v-94.9c26.1-1.9 48.3-18.1 58.9-40.8 4.3 3.9 9.4 6.8 15.2 8.6 4.5 1.8 8.6 2.1 11.8 2.1 18.8 0 34.8-13.1 39.3-30.7zM794.4 124.9h-51.4c-5.5 0-10 4.5-10 10s4.5 10 10 10h51.4c5.5 0 10-4.5 10-10s-4.5-10-10-10zM681.9 124.9h-60.8c-5.5 0-10 4.5-10 10s4.5 10 10 10h60.8c5.5 0 10-4.5 10-10s-4.4-10-10-10zM556.3 124.9h-76.8c-5.5 0-10 4.5-10 10s4.5 10 10 10h76.8c5.5 0 10-4.5 10-10s-4.4-10-10-10zM415.9 124.9h-76.2c-5.5 0-10 4.5-10 10s4.5 10 10 10h76.2c5.5 0 10-4.5 10-10s-4.5-10-10-10zM290.6 124.9h-51.2c-5.5 0-10 4.5-10 10s4.5 10 10 10h51.2c5.5 0 10-4.5 10-10s-4.5-10-10-10zM794.4 34.8h-555c-5.5 0-10 4.5-10 10s4.5 10 10 10h555c5.5 0 10-4.5 10-10s-4.5-10-10-10zM568.7 710h-78.2c-5.5 0-10 4.5-10 10v40.7c0 5.5 4.5 10 10 10h78.2c5.5 0 10-4.5 10-10v-40.7c0-5.6-4.5-10-10-10zM500.5 730h58.2v20.7h-58.2v-20.7zM529.2 750.7c-5.5 0-10 4.5-10 10v46.8c0 5.5 4.5 10 10 10s10-4.5 10-10v-46.8c0-5.6-4.5-10-10-10zM563.1 664.4h-67c-2.8 0-5 2.2-5 5s2.2 5 5 5h67c2.8 0 5-2.2 5-5s-2.3-5-5-5zM563.1 630.7h-67c-2.8 0-5 2.2-5 5s2.2 5 5 5h67c2.8 0 5-2.2 5-5s-2.3-5-5-5zM563.1 597.1h-67c-2.8 0-5 2.2-5 5s2.2 5 5 5h67c2.8 0 5-2.2 5-5s-2.3-5-5-5zM563.1 563.5h-67c-2.8 0-5 2.2-5 5s2.2 5 5 5h67c2.8 0 5-2.2 5-5s-2.3-5-5-5zM563.1 529.9h-67c-2.8 0-5 2.2-5 5s2.2 5 5 5h67c2.8 0 5-2.2 5-5s-2.3-5-5-5zM563.1 496.2h-67c-2.8 0-5 2.2-5 5s2.2 5 5 5h67c2.8 0 5-2.2 5-5s-2.3-5-5-5zM461 197.3h-39c-2.8 0-5 2.2-5 5 0 14.1-11.5 25.6-25.6 25.6-2.8 0-4.7-0.3-6.4-1.1-1.5-0.7-3.3-0.5-4.8 0.4-1.4 0.9-2.3 2.5-2.3 4.2v49.3c0 2.8 2.2 5 5 5h78.1c2.8 0 5-2.2 5-5v-78.4c0-2.7-2.2-5-5-5zM426.7 207.3h29.3v68.4h-68v-37.9c1.2 0.1 2.4 0.1 3.4 0.1 17.9 0.1 32.8-13.3 35.3-30.6zM482.9 275.7h-122c-2.8 0-5 2.2-5 5s2.2 5 5 5h122c2.8 0 5-2.2 5-5s-2.3-5-5-5zM722 500.7h-79.7c-2.8 0-5 2.2-5 5v26.6c0 2.8 2.2 5 5 5h79.7c2.8 0 5-2.2 5-5v-26.6c0-2.7-2.3-5-5-5zM647.2 510.7h69.8v16.6h-69.7v-16.6zM722 442.1h-79.7c-2.8 0-5 2.2-5 5v26.6c0 2.8 2.2 5 5 5h79.7c2.8 0 5-2.2 5-5v-26.6c0-2.8-2.3-5-5-5zM647.2 452.1h69.8v16.6h-69.7v-16.6zM722 383.4h-79.7c-2.8 0-5 2.2-5 5v26.6c0 2.8 2.2 5 5 5h79.7c2.8 0 5-2.2 5-5v-26.6c0-2.8-2.3-5-5-5zM647.2 393.4h69.8v16.6h-69.7v-16.6zM722 324.7h-79.7c-2.8 0-5 2.2-5 5v26.6c0 2.8 2.2 5 5 5h79.7c2.8 0 5-2.2 5-5v-26.6c0-2.7-2.3-5-5-5zM647.2 334.7h69.8v16.6h-69.7v-16.6zM563.1 462.6h-67c-2.8 0-5 2.2-5 5s2.2 5 5 5h67c2.8 0 5-2.2 5-5s-2.3-5-5-5zM794.4 192.3h-120.7c-5.5 0-10 4.5-10 10 0 38.8 31.6 70.4 70.4 70.4 8.8 0 17.2-1.6 24.3-4.6 27.5-9.8 46-36.2 46-65.8 0-5.5-4.5-10-10-10zM684.7 212.3h98.7c-3.4 17-15.4 31.2-32 37-0.2 0.1-0.4 0.2-0.6 0.2-4.7 2-10.5 3.1-16.8 3.1-24.3 0.1-44.7-17.3-49.3-40.3zM361 192.3h-121.6c-5.5 0-10 4.5-10 10 0 36.6 28.5 67.5 64.9 70.6 2.2 0.4 4.4 0.4 6.1 0.4 39 0 70.7-31.8 70.7-71-0.1-5.5-4.5-10-10.1-10zM250.4 212.3h99.6c-4.6 23.3-25.2 41-49.7 41-0.8 0-2.3 0-2.9-0.1-0.4-0.1-0.8-0.1-1.2-0.2-22.8-1.7-41.4-18.8-45.8-40.7zM422 192.3h-61c-5.5 0-10 4.5-10 10 0 17.7 11.7 33.4 28.5 38.6 4.5 1.8 8.6 2.1 11.8 2.1 22.4 0 40.6-18.2 40.6-40.6 0.1-5.6-4.4-10.1-9.9-10.1zM373.7 212.3h35.7c-3.5 6.3-10.3 10.6-18 10.6-2.1 0-3.3-0.2-4.3-0.6-0.4-0.2-0.9-0.4-1.3-0.5-5.3-1.4-9.6-4.9-12.1-9.5zM563.1 429h-67c-2.8 0-5 2.2-5 5s2.2 5 5 5h67c2.8 0 5-2.2 5-5s-2.3-5-5-5z"  horiz-adv-x="1024" />

    
    <glyph glyph-name="earth" unicode="&#58919;" d="M511.919 833.576h-0.559c-0.18 0-0.351-0.024-0.521-0.024-246.345-0.559-445.835-200.424-445.835-446.902 0-246.395 199.49-446.285 445.835-446.867 0.17 0 0.341-0.048 0.521-0.048h0.559c246.782 0 446.915 200.131 446.915 446.915 0 246.842-200.133 446.926-446.915 446.926zM414.763 786.124c-34.515-35.957-63.72-90.609-84.548-157.505-38.82 11.832-76.038 27.352-111.293 46.142 52.832 53.73 120.288 93.010 195.84 111.363zM194.204 647.337c39.801-21.918 82.036-39.863 126.276-53.27-14.44-57.028-23.095-121.305-24.404-189.523h-194.871c3.952 91.906 38.188 176.116 92.999 242.794zM194.204 125.996c-54.811 66.681-89.047 150.912-92.998 242.807h194.87c1.309-68.229 9.964-132.482 24.404-189.511-44.226-13.434-86.476-31.375-126.276-53.296zM218.8 98.694c35.291 18.866 72.523 34.333 111.39 46.165 20.816-66.968 50.033-121.668 84.573-157.652-75.603 18.38-143.092 57.709-195.963 111.486zM494.036-22.103c-48.542 12.706-97.86 77.25-129.209 176.469 41.606 10.134 84.815 16.052 129.209 17.311v-193.78zM494.036 207.368c-47.766-1.26-94.233-7.661-138.97-18.62-13.395 52.713-21.7 113.474-23.009 180.056h161.979v-161.436zM494.036 404.543h-161.979c1.309 66.642 9.627 127.427 23.022 180.164 44.746-10.936 91.191-17.289 138.957-18.548v-161.616zM494.036 601.873c-44.371 1.261-87.565 7.154-129.161 17.289 31.361 99.121 80.655 163.617 129.161 176.25v-193.539zM829.539 647.434c54.87-66.679 89.118-150.936 93.082-242.891h-195.973c-1.308 68.144-9.953 132.327-24.368 189.306 44.578 13.481 87.168 31.522 127.259 53.585zM804.902 674.761c-35.558-18.937-73.103-34.576-112.322-46.457-20.89 67.26-50.239 122.132-84.923 158.185 76.109-18.283 144.071-57.658 197.245-111.728zM529.79 794.998c48.202-13.335 97.023-77.587 128.144-176.103-41.28-9.965-84.124-15.761-128.144-17.022v193.124zM529.79 566.136c47.39 1.283 93.493 7.54 137.891 18.353 13.385-52.688 21.677-113.402 22.986-179.945h-160.876v161.592zM529.79 368.803h160.876c-1.309-66.485-9.601-127.148-22.937-179.813-44.432 10.864-90.536 17.119-137.939 18.379v161.435zM529.79-21.665v193.343c44.030-1.26 86.876-7.128 128.18-17.071-31.11-98.585-79.954-162.937-128.18-176.273zM607.633-13.13c34.745 36.032 64.095 90.974 85.009 158.332 39.217-11.929 76.788-27.545 112.371-46.506-53.174-54.119-121.184-93.594-197.38-111.826zM829.648 125.996c-40.141 22.114-82.719 40.155-127.332 53.634 14.401 56.982 23.022 121.090 24.33 189.173h195.973c-3.939-91.895-38.152-176.078-92.971-242.807z"  horiz-adv-x="1024" />

    
    <glyph glyph-name="dingwei" unicode="&#58897;" d="M504.624 896C303.856 896 141.088 725.424 141.088 515.024 141.088 304.608 511.664-128 511.664-128s356.48 432.608 356.48 643.024C868.144 725.424 705.392 896 504.624 896z m6.624-987.6S162.512 315.52 162.512 513.536c0 198.016 153.168 358.528 342.096 358.528 188.944 0 342.112-160.528 342.112-358.528 0-198.016-335.472-605.136-335.472-605.136zM507.104 718.768c-101.584 0-183.936-82.352-183.936-183.952 0-101.584 82.352-183.936 183.936-183.936s183.952 82.352 183.952 183.936c0 101.6-82.352 183.952-183.952 183.952z m0-341.696c-87.12 0-157.76 70.624-157.76 157.76 0 87.12 70.624 157.76 157.76 157.76s157.76-70.624 157.76-157.76-70.624-157.76-157.76-157.76z"  horiz-adv-x="1024" />

    
    <glyph glyph-name="xiatubiao-" unicode="&#58895;" d="M688.604094 569.266488C640.904676 614.753433 577.492951 639.753128 510.193772 639.753128c-139.435798 0-252.884413-108.461176-252.884413-241.784549 0-63.249228 25.42469-123.110997 71.599126-168.585442l1.037487-0.962488a315.596148 315.596148 0 0 1 64.899208-43.474469c13.96233-6.862416 27.687162-12.937342 40.799502-18.03728l1.787478-0.599993a264.996765 264.996765 0 0 1 72.749112-10.199875c67.349178 0 130.710904 24.999695 178.410322 70.46164 47.999414 45.711942 74.436591 106.586199 74.436592 171.385408S736.603508 523.504547 688.604094 569.266488z m33.57459-171.347908c0-110.748648-95.098839-200.847548-211.984912-200.847548a224.347261 224.347261 0 0 0-60.674259 8.374898c-11.749857 4.599944-24.074706 10.074877-36.637053 16.249801a274.309151 274.309151 0 0 0-55.861818 37.399544c-37.962037 37.637041-58.861781 86.923939-58.861782 138.835805 0 110.711149 95.111339 200.785049 212.022412 200.785049s211.997412-90.0864 211.997412-200.797549zM905.426447 476.005127a153.073131 153.073131 0 0 1-52.861854 21.487238l-6.174925 1.037487v-0.224997l-13.262338 2.962464c-16.512298 47.136925-44.399458 90.298898-82.323995 126.410956-64.099218 61.036755-149.248178 94.648845-239.759573 94.648845S335.333407 688.74003 271.246689 627.703275A323.508551 323.508551 0 0 1 188.747696 501.004822l-19.062267-3.162462a152.598137 152.598137 0 0 1-54.211839-21.24974C89.998901 460.130321 60.261764 428.805703 62.836733 372.631389c2.062475-44.599456 24.349703-78.749039 64.424214-98.748795a163.210508 163.210508 0 0 1 58.024291-16.074804h0.324996c16.249802-0.587493 24.474701 1.787478 29.912135 3.34996a32.862099 32.862099 0 0 0 3.512457 0.899989l25.962183 4.224948-10.449872 24.174705a269.234213 269.234213 0 0 0-22.287228 107.423689c0 156.248093 134.035864 283.45904 298.746353 283.459039s298.746353-127.160948 298.746353-283.459039a269.884206 269.884206 0 0 0-15.162315-89.29891l-5.087437-12.499848c-3.612456-8.899891-7.499908-17.499786-11.612359-25.662187-28.63715-53.961841-75.674076-98.573797-132.498382-125.660966-11.074865-4.999939-22.999719-9.562383-35.462067-13.749832-13.037341 1.124986-42.986975 2.662467-67.336678-3.899952-24.5997-6.712418-34.42458-30.624626-33.124596-49.99939 2.499969-35.949561 28.374654-43.511969 39.31202-45.086949a88.46142 88.46142 0 0 1 13.07484-0.999988c26.124681 0 47.624419 12.387349 58.98678 33.999585l0.424995 0.79999 0.637492 1.574981c2.162474 5.799929 3.012463 12.499847 3.899953 19.474762 0.212497 1.67498 0.487494 3.874953 0.79999 5.974927a350.60822 350.60822 0 0 1 36.912049 15.137315c2.42497 1.099987 4.824941 2.212473 7.174913 3.33746l20.212253 10.462372a302.008813 302.008813 0 0 1 55.824319 39.999512c26.974671 24.449702 48.749405 53.27435 66.561687 88.136424 3.29996 6.137425 6.437421 12.499847 9.324886 18.749771a242.084545 242.084545 0 0 1 55.74932 11.612358c50.324386 17.499786 77.711551 50.211887 79.199033 94.723844 1.474982 42.811977-16.562298 77.761551-52.136864 100.998767zM187.360213 298.78229c-4.349947 0.299996-80.499017 6.53742-83.748978 75.736576-3.224961 70.111644 69.236655 82.273996 72.374117 82.761489l1.012487 0.162498a314.833657 314.833657 0 0 1-5.67493-59.561772 309.833718 309.833718 0 0 1 16.249801-99.111291z m396.532659-216.109862c-5.387434-8.749893-15.174815-12.199851-29.162144-10.099876-3.29996 0.474994-3.987451 0.574993-4.474945 7.34991-0.149998 2.324972 0.574993 6.949915 3.012463 7.612407 8.299899 2.237473 19.012268 3.399958 31.887111 3.462458-0.349996-2.787466-0.82499-6.312423-1.262485-8.324899z m332.858437 293.671415c-1.412483-42.349483-45.811941-58.19929-78.049047-64.124217a314.658659 314.658659 0 0 1 6.249924 144.99823l0.76249-0.137498a114.111107 114.111107 0 0 0 37.362044-15.412312c23.312215-15.199814 34.624577-37.187046 33.674589-65.324203zM634.279757 333.506866a133.748367 133.748367 0 0 0-248.19697 0c32.424604-22.499725 76.086571-36.249558 124.098485-36.249557s91.673881 13.749832 124.098485 36.249557z"  horiz-adv-x="1033" />

    
    <glyph glyph-name="eye" unicode="&#58880;" d="M945.723 368.069c0-83.504-178.842-261.637-433.701-261.637-248.371 0-433.701 175.202-433.701 261.637 0 86.422 186.128 261.356 433.701 261.356 256.861-0.001 433.762-174.937 433.701-261.357zM512.405 581.701c-115.427 0-208.998-95.714-208.998-213.774s93.571-213.774 208.998-213.774c115.463 0 209.036 95.714 209.036 213.774-0.001 118.060-93.574 213.774-209.036 213.774zM512.027 517.868c-83.634 0-151.435-69.337-151.435-154.877 0-85.531 67.801-154.88 151.435-154.88s151.408 69.348 151.408 154.88c0 85.54-67.773 154.877-151.408 154.877z"  horiz-adv-x="1024" />

    
    <glyph glyph-name="tongzhi" unicode="&#58952;" d="M186.181818 521.309091h79.127273V337.454545H186.181818v183.854546zM439.854545 256h-79.127272s11.636364-107.054545 95.418182-221.090909c0 0 72.145455-2.327273 83.781818 27.927273 0 0 6.981818 20.945455-16.290909 46.545454-6.981818 13.963636-72.145455 72.145455-83.781819 146.618182zM723.781818 733.090909c-141.963636-176.872727-414.254545-186.181818-414.254545-186.181818v-235.054546c321.163636-16.290909 416.581818-141.963636 416.581818-141.963636C849.454545 202.472727 837.818182 430.545455 837.818182 430.545455c9.309091 332.8-114.036364 302.545455-114.036364 302.545454z"  horiz-adv-x="1024" />

    
    <glyph glyph-name="goback" unicode="&#58898;" d="M512 837.859c-250.634 0-453.859-203.151-453.859-453.895 0-250.634 203.151-453.82 453.859-453.821 250.634 0 453.859 203.151 453.859 453.821s-203.151 453.895-453.859 453.895zM512-29.539c-228.038 0-413.539 185.501-413.539 413.501 0 228.038 185.501 413.539 413.539 413.539s413.539-185.501 413.539-413.539c0-228-185.501-413.5-413.539-413.501zM600.468 131.040l-249.637 249.637 249.637 249.563 42.72-42.757-206.769-206.806 206.769-206.806z"  horiz-adv-x="1024" />

    
    <glyph glyph-name="fenlei" unicode="&#58889;" d="M362.5 832.7H174c-60.5 0-109.4-49.1-109.4-109.4v-189c0-60.5 49.1-109.4 109.4-109.4h298.4V723.1c-0.1 60.5-49.4 109.6-109.9 109.6z m488.4 0H662c-60.5 0-109.4-49.1-109.4-109.4v-298.5H851c60.5 0 109.4 49.1 109.4 109.4v189c0.1 60.4-49 109.5-109.5 109.5zM174 344.3c-60.5 0-109.4-49.1-109.4-109.4v-189c0-60.5 49.1-109.4 109.4-109.4h189c60.5 0 109.4 49.1 109.4 109.4V344.3H174z m676.9 0H552.5v-298.4c0-60.5 49.1-109.4 109.4-109.4h189c60.5 0 109.4 49.1 109.4 109.4V234.7c0.5 60.5-48.9 109.6-109.4 109.6z"  horiz-adv-x="1024" />

    
    <glyph glyph-name="star" unicode="&#58948;" d="M1008.056 441.438c-72.047-87.755-199.442-232.63-199.442-232.63s20.836-159.064 32.514-267.717c5.077-55.339-34.822-79.272-80.005-57.7-85.979 43.192-216.818 110.113-246.249 125.192-29.952-14.928-162.103-80.744-248.973-123.836-45.705-21.52-86.082 2.408-80.945 57.647 11.833 108.493 32.883 267.403 32.883 267.403s-128.858 144.57-201.74 232.212c-25.758 31.83-9.218 77.076 41.57 85.395 103.567 19.581 264.104 50.79 264.104 50.79s87.808 161.841 143.362 260.958c30.577 60.314 51.728 53.35 55.345 51.575 9.423-3.246 24.295-14.975 43.713-51.626 54.923-99.271 141.74-261.327 141.74-261.327s158.648-31.212 261.011-50.842c50.178-8.368 66.564-53.666 41.114-85.496z"  horiz-adv-x="1024" />

    
    <glyph glyph-name="down-trangle" unicode="&#58896;" d="M530.877 222.173l285.857 285.857c10.929 10.929 10.929 29.334 0 40.837-10.929 10.929-29.334 10.929-40.837 0l-265.725-265.725-264.573 264.573c-10.929 10.929-29.334 10.929-40.837 0-10.929-10.929-10.929-29.334 0-40.837l284.703-284.703c12.077-11.502 29.908-11.502 41.418 0z"  horiz-adv-x="1024" />

    
    <glyph glyph-name="zhongbiao" unicode="&#58887;" d="M513.506 384.694v222.599h-55.649v-278.251h333.9v55.654h-278.249zM958.705 384.694c0 245.898-199.333 445.196-445.199 445.196s-445.199-199.297-445.199-445.196c0-245.906 199.333-445.203 445.199-445.203s445.199 199.297 445.199 445.203zM120.69 384.694c0 216.956 175.868 392.8 392.817 392.8s392.817-175.845 392.817-392.8c0-216.962-175.869-392.807-392.817-392.807s-392.817 175.844-392.817 392.807z"  horiz-adv-x="1024" />

    
    <glyph glyph-name="f11-copy" unicode="&#58882;" d="M328.20792302595464 549.9378430603648l368.4938888522427 0c20.393071563698495 0 36.887279252459585-16.366076012119944 36.887279252459585-36.757317123294996 0-9.4835745239675-3.6371091640848143-18.055583691259486-9.4835745239675-24.550029244441628l-182.23253142407032-243.15182185683665c-12.210948783900248-16.104321301267337-35.199602025843475-19.483336659546435-51.43754636132228-7.274218328169629-2.859166841620776 2.0793940666332906-5.324786390700918 4.546844068236879-7.274218328169629 7.274218328169629L298.85295590747035 491.2279088233963c-12.079156202212225 16.10615175379078-8.830102973097707 39.22476712489858 7.404180457334207 51.305753779634244C312.8833744996749 547.6003551879257 320.5456487628147 549.9378430603648 328.20792302595464 549.9378430603648L328.20792302595464 549.9378430603648z"  horiz-adv-x="1024" />

    
    <glyph glyph-name="home" unicode="&#58883;" d="M927.744-70.65599999999995H135.168c-16.384 0-32.768 8.192-43.008 20.48-10.24 14.336-14.336 30.72-10.24 47.104 40.96 208.896 210.944 364.544 415.744 380.928 8.192 2.048 14.336 2.048 24.576 2.048v-20.48c-8.192 0-14.336 0-22.528-2.048-196.608-14.336-360.448-163.84-399.36-364.544-2.048-10.24 0-22.528 8.192-30.72 6.144-8.192 16.384-12.288 26.624-12.288h792.576c10.24 0 20.48 4.096 26.624 12.288 6.144 8.192 10.24 18.432 8.192 30.72-24.576 131.072-104.448 243.712-217.088 307.2-12.288 8.192-26.624 14.336-38.912 20.48l8.192 18.432c14.336-6.144 28.672-14.336 40.96-20.48 118.784-67.584 200.704-184.32 227.328-321.536 4.096-16.384 0-32.768-12.288-47.104-10.24-12.288-26.624-20.48-43.008-20.48z m-399.36 430.08h-4.096v20.48h6.144l-2.048-20.48zM536.576 359.424c-129.024 0-235.52 106.496-235.52 235.52S407.552 830.4639999999999 536.576 830.4639999999999s235.52-106.496 235.52-235.52-106.496-235.52-235.52-235.52z m0 450.56c-118.784 0-215.04-96.256-215.04-215.04s96.256-215.04 215.04-215.04 215.04 96.256 215.04 215.04S655.36 809.984 536.576 809.984z"  horiz-adv-x="1024" />

    
    <glyph glyph-name="fanhui" unicode="&#58916;" d="M710.153924 887.019603L266.007127 435.307476a81.118646 81.118646 0 0 1 0.861532-114.476097l446.192936-441.050666a26.922883 26.922883 0 0 1 37.853573 38.284339L304.722232 359.115718a27.27288 27.27288 0 0 0-0.323074 38.445877L748.545955 849.273722A26.922883 26.922883 0 1 1 710.180847 886.99268z"  horiz-adv-x="1024" />

    
    <glyph glyph-name="praise" unicode="&#58894;" d="M884.875894 472.856747L646.970506 472.856747c92.185562 340.464205-63.516616 357.853247-63.516616 357.853247-65.993017 0-52.312436-52.182476-57.3031-60.881602 0-166.502152-176.849824-296.971645-176.849824-296.971645l0-472.171899c0-46.607504 63.516616-63.393819 88.433098-63.393819l357.452111 0c33.641191 0 61.036122 88.224344 61.036122 88.224344 88.434122 300.70569 88.434122 390.177444 88.434122 390.177444C944.657442 477.820805 884.875894 472.856747 884.875894 472.856747L884.875894 472.856747 884.875894 472.856747zM884.875894 472.856747M251.671415 472.700181L109.214912 472.700181c-29.420053 0-29.873378-28.89612-29.873378-28.89612l29.420053-476.202703c0-30.309306 30.361495-30.309306 30.361495-30.309306L262.420223-62.70794799999999c25.686009 0 25.458835 20.049638 25.458835 20.049638L287.879058 436.588729C287.879058 473.162716 251.671415 472.700181 251.671415 472.700181L251.671415 472.700181 251.671415 472.700181zM251.671415 472.700181"  horiz-adv-x="1024" />

    
    <glyph glyph-name="jiaotong" unicode="&#58886;" d="M506.373626 389.626374m-506.373626 0a506.373626 506.373626 0 1 1 1012.747253 0 506.373626 506.373626 0 1 1-1012.747253 0ZM506.373626 665.318681h174.417583c50.637363 0 69.767033-18.004396 73.142857-67.516483 1.125275-7.876923 2.250549-16.879121 6.751648-22.505495 28.131868-32.632967 28.131868-56.263736 0-92.272527-5.626374-6.751648-5.626374-19.12967-5.626373-29.257143v-202.549451c0-46.136264-12.378022-60.764835-56.263737-70.892307-7.876923-2.250549-16.879121-11.252747-18.004395-18.004396-4.501099-30.382418-21.38022-48.386813-51.762638-48.386813-29.257143 0-42.76044 20.254945-50.637362 47.261538-2.250549 7.876923-15.753846 19.12967-24.756044 19.129671-29.257143 2.250549-58.514286 0-86.646154 1.125274-18.004396 1.125275-25.881319-5.626374-28.131868-23.630769-2.250549-28.131868-21.38022-42.76044-48.386813-43.885714-25.881319-1.125275-43.885714 14.628571-48.386814 39.384615-4.501099 19.12967-10.127473 28.131868-31.507692 28.131868-33.758242 1.125275-52.887912 24.756044-52.887912 60.764836 0 69.767033 1.125275 139.534066-1.125275 208.175824 0 12.378022-7.876923 25.881319-15.753846 37.134066-12.378022 16.879121-11.252747 63.015385 1.125275 78.76923 6.751648 9.002198 13.503297 22.505495 14.628571 33.758242 3.375824 42.76044 23.630769 64.140659 67.516484 64.14066 59.63956 1.125275 120.404396 1.125275 182.294505 1.125274z m-2.250549-300.448351h186.795604c18.004396 0 27.006593 3.375824 27.006594 23.630769-1.125275 48.386813-1.125275 97.898901 0 146.285714 0 18.004396-7.876923 22.505495-24.756044 22.505495H317.327473c-19.12967 0-25.881319-6.751648-25.881319-25.881319 1.125275-46.136264 1.125275-91.147253 0-137.283516-1.125275-25.881319 9.002198-31.507692 32.632967-31.507693 59.63956 2.250549 120.404396 2.250549 180.043956 2.25055z m1.125275-34.883517c-46.136264 0-93.397802 1.125275-139.534066 0-85.520879-1.125275-72.017582 14.628571-73.142857-74.268132 0-36.008791 4.501099-40.50989 41.635164-40.50989h301.573627c91.147253 1.125275 81.01978-12.378022 82.145055 83.27033 0 25.881319-10.127473 31.507692-32.632967 30.382417-60.764835 0-120.404396 1.125275-180.043956 1.125275z m0 262.189011c60.764835 0 122.654945-1.125275 183.41978 1.125275 9.002198 0 19.12967 9.002198 28.131868 14.628571-9.002198 7.876923-18.004396 22.505495-27.006593 22.505495-123.78022 1.125275-246.435165 1.125275-370.215385 0-9.002198 0-18.004396-14.628571-27.006593-22.505495 10.127473-4.501099 19.12967-13.503297 29.257142-14.628571 60.764835-2.250549 122.654945-1.125275 183.419781-1.125275z m97.898901-406.224176c0-32.632967 6.751648-49.512088 29.257143-43.885714 7.876923 2.250549 13.503297 16.879121 19.12967 25.881319-13.503297 5.626374-29.257143 11.252747-48.386813 18.004395z m-238.558242-6.751648c-1.125275-21.38022 2.250549-39.384615 25.881319-37.134066 7.876923 1.125275 22.505495 18.004396 20.254945 24.756044-5.626374 27.006593-28.131868 10.127473-46.136264 12.378022zM504.123077 364.87033c-59.63956 0-120.404396 1.125275-180.043956 0-23.630769 0-33.758242 5.626374-32.632967 31.507692 2.250549 45.010989 1.125275 91.147253 0 137.283516 0 18.004396 6.751648 25.881319 25.881319 25.881319h375.841758c16.879121 0 24.756044-4.501099 24.756044-22.505494-1.125275-48.386813-1.125275-97.898901 0-146.285715 0-20.254945-9.002198-23.630769-27.006594-23.630769-61.89011-2.250549-123.78022-2.250549-186.795604-2.250549zM505.248352 329.986813c59.63956 0 120.404396-1.125275 180.043956 0 22.505495 0 33.758242-4.501099 32.632967-30.382417-2.250549-95.648352 9.002198-83.27033-82.145055-83.27033-100.149451-1.125275-201.424176 0-301.573627 0-37.134066 0-42.76044 4.501099-41.635164 40.50989 1.125275 88.896703-12.378022 73.142857 73.142857 74.268132 46.136264 0 92.272527-1.125275 139.534066-1.125275zM686.417582 269.221978v13.503297c-12.378022 9.002198-24.756044 25.881319-34.883516 24.756044-11.252747-1.125275-29.257143-19.12967-30.382418-29.257143 0-10.127473 16.879121-29.257143 28.131868-30.382418 12.378022-3.375824 25.881319 12.378022 37.134066 21.38022z m-283.56923 3.375824v14.628572c-11.252747 7.876923-22.505495 21.38022-34.883517 23.630769-19.12967 3.375824-33.758242-10.127473-30.382417-28.131868 2.250549-12.378022 16.879121-28.131868 28.131868-30.382418 12.378022-2.250549 25.881319 12.378022 37.134066 20.254945zM505.248352 592.175824c-60.764835 0-122.654945-1.125275-183.419781 0-10.127473 0-19.12967 9.002198-29.257142 14.628572 9.002198 7.876923 18.004396 22.505495 27.006593 22.505494 123.78022 1.125275 246.435165 1.125275 370.215385 0 9.002198 0 18.004396-14.628571 27.006593-22.505494-9.002198-4.501099-19.12967-14.628571-28.131868-14.628572-60.764835-1.125275-122.654945 0-183.41978 0zM686.417582 269.221978c-12.378022-7.876923-25.881319-23.630769-36.008791-22.505494-11.252747 2.250549-29.257143 20.254945-28.131868 30.382417 0 11.252747 18.004396 28.131868 30.382418 29.257143 11.252747 1.125275 23.630769-15.753846 34.883516-24.756044 0-3.375824-1.125275-7.876923-1.125275-12.378022zM402.848352 272.597802c-12.378022-7.876923-25.881319-22.505495-36.008792-20.254945-11.252747 2.250549-25.881319 18.004396-28.131868 30.382418-3.375824 18.004396 11.252747 32.632967 30.382418 28.131868 12.378022-2.250549 23.630769-15.753846 34.883516-23.630769 0-4.501099 0-10.127473-1.125274-14.628572z"  horiz-adv-x="1024" />

    
    <glyph glyph-name="shuaxin3" unicode="&#59188;" d="M509.952 722.944v120.832c0 22.016-26.112 32.768-41.984 17.408l-187.392-187.392c-15.36-15.36-15.36-40.96 0-56.32L468.48 430.08c15.36-15.36 41.984-4.608 41.984 17.408v172.544c178.176 0 322.56-153.088 307.712-333.824-12.288-150.016-132.608-270.336-282.624-282.624-165.888-13.312-308.224 106.496-330.752 263.68-3.584 25.088-25.088 44.032-50.688 44.032-31.232 0-55.296-27.648-51.2-58.368 28.672-199.168 200.704-353.28 407.552-353.28 226.304 0 411.648 185.344 411.648 411.648s-185.344 411.648-412.16 411.648z"  horiz-adv-x="1024" />

    


  </font>
</defs>
</svg>
